<?xml version="1.0" encoding="UTF-8" standalone="no"?>
<!DOCTYPE svg PUBLIC "-//W3C//DTD SVG 1.1//EN"
 "http://www.w3.org/Graphics/SVG/1.1/DTD/svg11.dtd">
<!-- Generated by graphviz version 2.40.1 (20161225.0304)
 -->
<!-- Title: dependencies Pages: 1 -->
<svg width="769pt" height="211pt"
 viewBox="0.00 0.00 769.00 211.00" xmlns="http://www.w3.org/2000/svg" xmlns:xlink="http://www.w3.org/1999/xlink">
<g id="graph0" class="graph" transform="scale(1 1) rotate(0) translate(4 207)">
<title>dependencies</title>
<polygon fill="#ffffff" stroke="transparent" points="-4,4 -4,-207 765,-207 765,4 -4,4"/>
<text text-anchor="start" x="359.5091" y="-42.4" font-family="sans-serif" font-weight="bold" font-size="14.00" fill="#000000">Legend</text>
<polygon fill="#ffffb3" stroke="transparent" points="146.5,-10 146.5,-30 166.5,-30 166.5,-10 146.5,-10"/>
<text text-anchor="start" x="170.129" y="-15.4" font-family="sans-serif" font-size="14.00" fill="#000000"> &#160;Declarations</text>
<polygon fill="#8dd3c7" stroke="transparent" points="259.5,-10 259.5,-30 279.5,-30 279.5,-10 259.5,-10"/>
<text text-anchor="start" x="283.2251" y="-15.4" font-family="sans-serif" font-size="14.00" fill="#000000"> &#160;Module</text>
<polygon fill="#80b1d3" stroke="transparent" points="345.5,-10 345.5,-30 365.5,-30 365.5,-10 345.5,-10"/>
<text text-anchor="start" x="369.2812" y="-15.4" font-family="sans-serif" font-size="14.00" fill="#000000"> &#160;Bootstrap</text>
<polygon fill="#fdb462" stroke="transparent" points="442.5,-10 442.5,-30 462.5,-30 462.5,-10 442.5,-10"/>
<text text-anchor="start" x="466.1732" y="-15.4" font-family="sans-serif" font-size="14.00" fill="#000000"> &#160;Providers</text>
<polygon fill="#fb8072" stroke="transparent" points="538.5,-10 538.5,-30 558.5,-30 558.5,-10 538.5,-10"/>
<text text-anchor="start" x="562.2258" y="-15.4" font-family="sans-serif" font-size="14.00" fill="#000000"> &#160;Exports</text>
<g id="clust1" class="cluster">
<title>cluster_AppModule</title>
<polygon fill="none" stroke="#000000" stroke-dasharray="1,5" points="8,-70 8,-195 753,-195 753,-70 8,-70"/>
</g>
<g id="clust3" class="cluster">
<title>cluster_AppModule_imports</title>
<polygon fill="none" stroke="#000000" points="16,-78 16,-130 745,-130 745,-78 16,-78"/>
</g>
<!-- AuthModule -->
<g id="node1" class="node">
<title>AuthModule</title>
<polygon fill="#8dd3c7" stroke="#000000" points="736.5482,-122 733.5482,-126 712.5482,-126 709.5482,-122 649.4518,-122 649.4518,-86 736.5482,-86 736.5482,-122"/>
<text text-anchor="middle" x="693" y="-99.8" font-family="Times,serif" font-size="14.00" fill="#000000">AuthModule</text>
</g>
<!-- AppModule -->
<g id="node7" class="node">
<title>AppModule</title>
<polygon fill="#8dd3c7" stroke="#000000" points="428.6571,-187 425.6571,-191 404.6571,-191 401.6571,-187 345.3429,-187 345.3429,-151 428.6571,-151 428.6571,-187"/>
<text text-anchor="middle" x="387" y="-164.8" font-family="Times,serif" font-size="14.00" fill="#000000">AppModule</text>
</g>
<!-- AuthModule&#45;&gt;AppModule -->
<g id="edge1" class="edge">
<title>AuthModule&#45;&gt;AppModule</title>
<path fill="none" stroke="#000000" d="M693,-122.2843C693,-143.3211 693,-175 693,-175 693,-175 438.9064,-175 438.9064,-175"/>
<polygon fill="#000000" stroke="#000000" points="438.9064,-171.5001 428.9064,-175 438.9063,-178.5001 438.9064,-171.5001"/>
</g>
<!-- CategoriesModule -->
<g id="node2" class="node">
<title>CategoriesModule</title>
<polygon fill="#8dd3c7" stroke="#000000" points="631.9173,-122 628.9173,-126 607.9173,-126 604.9173,-122 512.0827,-122 512.0827,-86 631.9173,-86 631.9173,-122"/>
<text text-anchor="middle" x="572" y="-99.8" font-family="Times,serif" font-size="14.00" fill="#000000">CategoriesModule</text>
</g>
<!-- CategoriesModule&#45;&gt;AppModule -->
<g id="edge2" class="edge">
<title>CategoriesModule&#45;&gt;AppModule</title>
<path fill="none" stroke="#000000" d="M572,-122.0225C572,-139.3734 572,-163 572,-163 572,-163 438.9794,-163 438.9794,-163"/>
<polygon fill="#000000" stroke="#000000" points="438.9794,-159.5001 428.9794,-163 438.9793,-166.5001 438.9794,-159.5001"/>
</g>
<!-- ConfigModule -->
<g id="node3" class="node">
<title>ConfigModule</title>
<polygon fill="#8dd3c7" stroke="#000000" points="494.4386,-122 491.4386,-126 470.4386,-126 467.4386,-122 395.5614,-122 395.5614,-86 494.4386,-86 494.4386,-122"/>
<text text-anchor="middle" x="445" y="-99.8" font-family="Times,serif" font-size="14.00" fill="#000000">ConfigModule</text>
</g>
<!-- ConfigModule&#45;&gt;AppModule -->
<g id="edge3" class="edge">
<title>ConfigModule&#45;&gt;AppModule</title>
<path fill="none" stroke="#000000" d="M412.3047,-122.1061C412.3047,-122.1061 412.3047,-140.991 412.3047,-140.991"/>
<polygon fill="#000000" stroke="#000000" points="408.8048,-140.9909 412.3047,-150.991 415.8048,-140.991 408.8048,-140.9909"/>
</g>
<!-- MediaModule -->
<g id="node4" class="node">
<title>MediaModule</title>
<polygon fill="#8dd3c7" stroke="#000000" points="377.8147,-122 374.8147,-126 353.8147,-126 350.8147,-122 282.1853,-122 282.1853,-86 377.8147,-86 377.8147,-122"/>
<text text-anchor="middle" x="330" y="-99.8" font-family="Times,serif" font-size="14.00" fill="#000000">MediaModule</text>
</g>
<!-- MediaModule&#45;&gt;AppModule -->
<g id="edge4" class="edge">
<title>MediaModule&#45;&gt;AppModule</title>
<path fill="none" stroke="#000000" d="M361.4145,-122.1061C361.4145,-122.1061 361.4145,-140.991 361.4145,-140.991"/>
<polygon fill="#000000" stroke="#000000" points="357.9145,-140.9909 361.4145,-150.991 364.9145,-140.991 357.9145,-140.9909"/>
</g>
<!-- TransactionsModule -->
<g id="node5" class="node">
<title>TransactionsModule</title>
<polygon fill="#8dd3c7" stroke="#000000" points="264.5772,-122 261.5772,-126 240.5772,-126 237.5772,-122 133.4228,-122 133.4228,-86 264.5772,-86 264.5772,-122"/>
<text text-anchor="middle" x="199" y="-99.8" font-family="Times,serif" font-size="14.00" fill="#000000">TransactionsModule</text>
</g>
<!-- TransactionsModule&#45;&gt;AppModule -->
<g id="edge5" class="edge">
<title>TransactionsModule&#45;&gt;AppModule</title>
<path fill="none" stroke="#000000" d="M199,-122.0225C199,-139.3734 199,-163 199,-163 199,-163 335.2767,-163 335.2767,-163"/>
<polygon fill="#000000" stroke="#000000" points="335.2767,-166.5001 345.2767,-163 335.2767,-159.5001 335.2767,-166.5001"/>
</g>
<!-- UsersModule -->
<g id="node6" class="node">
<title>UsersModule</title>
<polygon fill="#8dd3c7" stroke="#000000" points="115.9218,-122 112.9218,-126 91.9218,-126 88.9218,-122 24.0782,-122 24.0782,-86 115.9218,-86 115.9218,-122"/>
<text text-anchor="middle" x="70" y="-99.8" font-family="Times,serif" font-size="14.00" fill="#000000">UsersModule</text>
</g>
<!-- UsersModule&#45;&gt;AppModule -->
<g id="edge6" class="edge">
<title>UsersModule&#45;&gt;AppModule</title>
<path fill="none" stroke="#000000" d="M70,-122.2843C70,-143.3211 70,-175 70,-175 70,-175 335.2318,-175 335.2318,-175"/>
<polygon fill="#000000" stroke="#000000" points="335.2318,-178.5001 345.2318,-175 335.2318,-171.5001 335.2318,-178.5001"/>
</g>
</g>
</svg>
