<?xml version="1.0" encoding="UTF-8" standalone="no"?>
<!DOCTYPE svg PUBLIC "-//W3C//DTD SVG 1.1//EN"
 "http://www.w3.org/Graphics/SVG/1.1/DTD/svg11.dtd">
<!-- Generated by graphviz version 2.40.1 (20161225.0304)
 -->
<!-- Title: dependencies Pages: 1 -->
<svg width="596pt" height="211pt"
 viewBox="0.00 0.00 596.00 211.00" xmlns="http://www.w3.org/2000/svg" xmlns:xlink="http://www.w3.org/1999/xlink">
<g id="graph0" class="graph" transform="scale(1 1) rotate(0) translate(4 207)">
<title>dependencies</title>
<polygon fill="#ffffff" stroke="transparent" points="-4,4 -4,-207 592,-207 592,4 -4,4"/>
<text text-anchor="start" x="273.0091" y="-42.4" font-family="sans-serif" font-weight="bold" font-size="14.00" fill="#000000">Legend</text>
<polygon fill="#ffffb3" stroke="transparent" points="60,-10 60,-30 80,-30 80,-10 60,-10"/>
<text text-anchor="start" x="83.629" y="-15.4" font-family="sans-serif" font-size="14.00" fill="#000000"> &#160;Declarations</text>
<polygon fill="#8dd3c7" stroke="transparent" points="173,-10 173,-30 193,-30 193,-10 173,-10"/>
<text text-anchor="start" x="196.7251" y="-15.4" font-family="sans-serif" font-size="14.00" fill="#000000"> &#160;Module</text>
<polygon fill="#80b1d3" stroke="transparent" points="259,-10 259,-30 279,-30 279,-10 259,-10"/>
<text text-anchor="start" x="282.7812" y="-15.4" font-family="sans-serif" font-size="14.00" fill="#000000"> &#160;Bootstrap</text>
<polygon fill="#fdb462" stroke="transparent" points="356,-10 356,-30 376,-30 376,-10 356,-10"/>
<text text-anchor="start" x="379.6732" y="-15.4" font-family="sans-serif" font-size="14.00" fill="#000000"> &#160;Providers</text>
<polygon fill="#fb8072" stroke="transparent" points="452,-10 452,-30 472,-30 472,-10 452,-10"/>
<text text-anchor="start" x="475.7258" y="-15.4" font-family="sans-serif" font-size="14.00" fill="#000000"> &#160;Exports</text>
<g id="clust1" class="cluster">
<title>cluster_TransactionsModule</title>
<polygon fill="none" stroke="#000000" stroke-dasharray="1,5" points="8,-70 8,-195 580,-195 580,-70 8,-70"/>
</g>
<g id="clust3" class="cluster">
<title>cluster_TransactionsModule_imports</title>
<polygon fill="none" stroke="#000000" points="218,-78 218,-130 572,-130 572,-78 218,-78"/>
</g>
<g id="clust6" class="cluster">
<title>cluster_TransactionsModule_providers</title>
<polygon fill="none" stroke="#000000" points="16,-78 16,-130 210,-130 210,-78 16,-78"/>
</g>
<!-- AuthModule -->
<g id="node1" class="node">
<title>AuthModule</title>
<polygon fill="#8dd3c7" stroke="#000000" points="563.5482,-122 560.5482,-126 539.5482,-126 536.5482,-122 476.4518,-122 476.4518,-86 563.5482,-86 563.5482,-122"/>
<text text-anchor="middle" x="520" y="-99.8" font-family="Times,serif" font-size="14.00" fill="#000000">AuthModule</text>
</g>
<!-- TransactionsModule -->
<g id="node4" class="node">
<title>TransactionsModule</title>
<polygon fill="#8dd3c7" stroke="#000000" points="401.5772,-187 398.5772,-191 377.5772,-191 374.5772,-187 270.4228,-187 270.4228,-151 401.5772,-151 401.5772,-187"/>
<text text-anchor="middle" x="336" y="-164.8" font-family="Times,serif" font-size="14.00" fill="#000000">TransactionsModule</text>
</g>
<!-- AuthModule&#45;&gt;TransactionsModule -->
<g id="edge1" class="edge">
<title>AuthModule&#45;&gt;TransactionsModule</title>
<path fill="none" stroke="#000000" d="M520,-122.1061C520,-141.3391 520,-169 520,-169 520,-169 411.649,-169 411.649,-169"/>
<polygon fill="#000000" stroke="#000000" points="411.649,-165.5001 401.649,-169 411.6489,-172.5001 411.649,-165.5001"/>
</g>
<!-- CategoriesModule -->
<g id="node2" class="node">
<title>CategoriesModule</title>
<polygon fill="#8dd3c7" stroke="#000000" points="458.9173,-122 455.9173,-126 434.9173,-126 431.9173,-122 339.0827,-122 339.0827,-86 458.9173,-86 458.9173,-122"/>
<text text-anchor="middle" x="399" y="-99.8" font-family="Times,serif" font-size="14.00" fill="#000000">CategoriesModule</text>
</g>
<!-- CategoriesModule&#45;&gt;TransactionsModule -->
<g id="edge2" class="edge">
<title>CategoriesModule&#45;&gt;TransactionsModule</title>
<path fill="none" stroke="#000000" d="M370.4152,-122.1061C370.4152,-122.1061 370.4152,-140.991 370.4152,-140.991"/>
<polygon fill="#000000" stroke="#000000" points="366.9152,-140.9909 370.4152,-150.991 373.9152,-140.991 366.9152,-140.9909"/>
</g>
<!-- MediaModule -->
<g id="node3" class="node">
<title>MediaModule</title>
<polygon fill="#8dd3c7" stroke="#000000" points="321.8147,-122 318.8147,-126 297.8147,-126 294.8147,-122 226.1853,-122 226.1853,-86 321.8147,-86 321.8147,-122"/>
<text text-anchor="middle" x="274" y="-99.8" font-family="Times,serif" font-size="14.00" fill="#000000">MediaModule</text>
</g>
<!-- MediaModule&#45;&gt;TransactionsModule -->
<g id="edge3" class="edge">
<title>MediaModule&#45;&gt;TransactionsModule</title>
<path fill="none" stroke="#000000" d="M296.0593,-122.1061C296.0593,-122.1061 296.0593,-140.991 296.0593,-140.991"/>
<polygon fill="#000000" stroke="#000000" points="292.5593,-140.9909 296.0593,-150.991 299.5593,-140.991 292.5593,-140.9909"/>
</g>
<!-- TransactionsService -->
<g id="node5" class="node">
<title>TransactionsService</title>
<ellipse fill="#fdb462" stroke="#000000" cx="113" cy="-104" rx="89.1607" ry="18"/>
<text text-anchor="middle" x="113" y="-99.8" font-family="Times,serif" font-size="14.00" fill="#000000">TransactionsService</text>
</g>
<!-- TransactionsService&#45;&gt;TransactionsModule -->
<g id="edge4" class="edge">
<title>TransactionsService&#45;&gt;TransactionsModule</title>
<path fill="none" stroke="#000000" d="M113,-122.1061C113,-141.3391 113,-169 113,-169 113,-169 260.2988,-169 260.2988,-169"/>
<polygon fill="#000000" stroke="#000000" points="260.2988,-172.5001 270.2988,-169 260.2987,-165.5001 260.2988,-172.5001"/>
</g>
</g>
</svg>
